<svg width="16" height="18" viewBox="0 0 16 18" fill="none" xmlns="http://www.w3.org/2000/svg">
<path d="M1 11.3916V14.7734C1 14.8866 1.08466 14.9783 1.1891 14.9783H4.26943C4.37386 14.9783 4.45853 14.8866 4.45853 14.7734V11.3921C4.45853 11.279 4.54319 11.1873 4.64762 11.1873L8.57455 11.1873C8.63968 11.1873 8.70024 11.2236 8.73481 11.2834L10.828 14.9039C10.8625 14.9637 10.9231 15 10.9882 15H14.8106C14.9611 15 15.0513 14.8188 14.9686 14.6826L12.3381 10.3472L12.337 10.3434C12.337 10.3395 12.3399 10.3364 12.3435 10.3364C13.5969 10.3252 14.7704 9.07456 14.7704 6.84757C14.7704 4.37472 12.7527 3.0102 11.2277 3.01005L11.2269 3.00259L11.2245 3H1.1891C1.11189 3 1.04549 3.05013 1.01611 3.12198C1.15173 4.40367 2.25254 5.79476 4.65881 5.79476L9.59407 5.795C10.1347 5.795 10.8499 6.27881 10.8499 7.15549C10.8499 7.94826 10.43 8.39203 9.98357 8.39229L4.65881 8.39229V8.39437C2.04744 8.39437 0.973558 10.0327 1.00226 11.3916H1Z" stroke="#201F1F" stroke-linejoin="round"/>
</svg>
